<?xml version="1.0" encoding="UTF-8"?>
<svg width="500" height="400" viewBox="0 0 500 400" fill="none" xmlns="http://www.w3.org/2000/svg">
    <!-- Background Elements -->
    <circle cx="250" cy="200" r="150" fill="#E8F4FF" opacity="0.3"/>
    <circle cx="100" cy="100" r="50" fill="#457B9D" opacity="0.1"/>
    <circle cx="400" cy="300" r="70" fill="#1D3557" opacity="0.1"/>
    
    <!-- Lock Icon -->
    <rect x="200" y="150" width="100" height="80" rx="10" fill="#457B9D"/>
    <rect x="215" y="190" width="70" height="30" rx="5" fill="#1D3557"/>
    <circle cx="250" cy="205" r="8" fill="white"/>
    <rect x="247" y="200" width="6" height="12" fill="white"/>
    
    <!-- Shield Elements -->
    <path d="M235 120 L250 100 L265 120 L265 140 L235 140 Z" fill="#1D3557" opacity="0.8"/>
    <circle cx="250" cy="115" r="5" fill="white"/>
    
    <!-- Decorative Lines -->
    <path d="M150 200 Q 250 180 350 200" stroke="#457B9D" stroke-width="2" opacity="0.3"/>
    <path d="M150 220 Q 250 240 350 220" stroke="#1D3557" stroke-width="2" opacity="0.3"/>
    
    <!-- Security Pattern -->
    <circle cx="250" cy="200" r="100" stroke="#457B9D" stroke-width="1" stroke-dasharray="4 4" opacity="0.2"/>
    <circle cx="250" cy="200" r="70" stroke="#1D3557" stroke-width="1" stroke-dasharray="4 4" opacity="0.2"/>
    
    <!-- Abstract Dots -->
    <circle cx="150" cy="150" r="5" fill="#457B9D" opacity="0.5"/>
    <circle cx="350" cy="150" r="5" fill="#1D3557" opacity="0.5"/>
    <circle cx="150" cy="250" r="5" fill="#1D3557" opacity="0.5"/>
    <circle cx="350" cy="250" r="5" fill="#457B9D" opacity="0.5"/>
    
    <!-- Connection Lines -->
    <path d="M155 150 L345 150" stroke="#457B9D" stroke-width="1" stroke-dasharray="4 4" opacity="0.3"/>
    <path d="M155 250 L345 250" stroke="#1D3557" stroke-width="1" stroke-dasharray="4 4" opacity="0.3"/>
    
    <!-- Key Elements -->
    <circle cx="180" cy="205" r="15" fill="#457B9D" opacity="0.8"/>
    <rect x="175" y="200" width="25" height="10" rx="5" fill="#457B9D" opacity="0.8"/>
    <circle cx="320" cy="205" r="15" fill="#1D3557" opacity="0.8"/>
    <rect x="315" y="200" width="25" height="10" rx="5" fill="#1D3557" opacity="0.8"/>
</svg> 