<svg xmlns="http://www.w3.org/2000/svg" width="500" height="500" fill="none" viewBox="0 0 500 500"><rect width="400" height="300" x="50" y="100" fill="#F0F4F8" rx="20"/><circle cx="250" cy="150" r="80" fill="#E2EAFC"/><circle cx="190" cy="200" r="30" fill="#6A80B5"/><circle cx="190" cy="200" r="15" fill="#4A5E8C"/><rect width="120" height="20" x="190" y="200" fill="#6A80B5" rx="5"/><rect width="20" height="30" x="250" y="180" fill="#6A80B5" rx="2"/><rect width="20" height="30" x="280" y="180" fill="#6A80B5" rx="2"/><rect width="100" height="80" x="200" y="300" fill="#6A80B5" rx="10"/><rect width="70" height="40" x="215" y="320" fill="#4A5E8C" rx="5"/><circle cx="250" cy="340" r="12" fill="#F0F4F8"/><path stroke="#6A80B5" stroke-width="8" d="M220 280C220 260 240 260 250 260C260 260 280 260 280 280"/><circle cx="400" cy="140" r="20" fill="#B8C9E6"/><circle cx="100" cy="340" r="30" fill="#B8C9E6"/><circle cx="380" cy="380" r="15" fill="#B8C9E6"/><circle cx="120" cy="180" r="10" fill="#B8C9E6"/><circle cx="350" cy="250" r="25" fill="#6FCF97"/><path stroke="#fff" stroke-width="5" d="M335 250L345 260L365 240"/></svg>