<svg xmlns="http://www.w3.org/2000/svg" width="240" height="200" viewBox="0 0 240 200"><style>.primary{fill:#4f46e5}.secondary{fill:#f97316}.accent{fill:#8b5cf6}.light{fill:#f8fafc}.medium{fill:#e2e8f0}.dark{fill:#1e293b}.st0{fill:#fff}</style><circle cx="120" cy="100" r="85" class="medium" opacity=".3"/><circle cx="120" cy="100" r="75" class="light"/><g transform="translate(55, 30)"><path d="M80,45 C75,30 65,35 65,35 L55,60 L40,50 C40,50 30,45 25,55 C20,65 30,73 30,73 L60,95 C60,95 70,105 85,105 C100,105 110,95 110,80 C110,65 85,60 80,45 Z" class="primary"/><path fill="none" stroke="#fff" stroke-width="2" d="M80,45 C78,38 74,35 70,35 C65,35 60,45 60,45 L70,70 L40,50 C40,50 35,45 30,50 C25,55 30,65 30,65 L60,90" class="accent"/><circle cx="40" cy="110" r="15" class="dark"/><rect width="30" height="35" x="25" y="125" class="dark" rx="10" ry="10"/><rect width="30" height="15" x="25" y="125" class="dark"/><circle cx="33" cy="107" r="2" class="st0"/><circle cx="47" cy="107" r="2" class="st0"/><path fill="none" stroke="#fff" stroke-width="1.5" d="M33,115 C38,120 42,120 47,115" class="st0"/><path d="M100,60 L120,60 L130,75 L100,130 L70,75 L80,60 Z" class="secondary" opacity=".8"/><path d="M100,70 L105,95 L100,110 L95,95 Z" class="st0"/><circle cx="100" cy="80" r="5" class="st0"/><circle cx="130" cy="50" r="10" class="primary" opacity=".8"/><path d="M128,45 L128,50 L123,50 L123,53 L128,53 L128,58 L131,58 L131,53 L136,53 L136,50 L131,50 L131,45 Z" class="st0"/><circle cx="25" cy="80" r="12" class="accent" opacity=".8"/><path stroke="#fff" stroke-width="2" d="M20,80 L30,80 M25,75 L25,85" class="st0"/><path d="M95,25 C88,25 83,30 83,37 C83,44 95,60 95,60 C95,60 107,44 107,37 C107,30 102,25 95,25 Z" class="secondary" opacity=".7"/><circle cx="95" cy="37" r="5" class="st0"/></g></svg>