<svg xmlns="http://www.w3.org/2000/svg" width="500" height="400" fill="none" viewBox="0 0 500 400"><circle cx="250" cy="200" r="150" fill="#E8F4FF" opacity=".3"/><circle cx="100" cy="100" r="50" fill="#457B9D" opacity=".1"/><circle cx="400" cy="300" r="70" fill="#1D3557" opacity=".1"/><rect width="100" height="80" x="200" y="150" fill="#457B9D" rx="10"/><rect width="70" height="30" x="215" y="190" fill="#1D3557" rx="5"/><circle cx="250" cy="205" r="8" fill="#fff"/><rect width="6" height="12" x="247" y="200" fill="#fff"/><path fill="#1D3557" d="M235 120 L250 100 L265 120 L265 140 L235 140 Z" opacity=".8"/><circle cx="250" cy="115" r="5" fill="#fff"/><path stroke="#457B9D" stroke-width="2" d="M150 200 Q 250 180 350 200" opacity=".3"/><path stroke="#1D3557" stroke-width="2" d="M150 220 Q 250 240 350 220" opacity=".3"/><circle cx="250" cy="200" r="100" stroke="#457B9D" stroke-dasharray="4 4" stroke-width="1" opacity=".2"/><circle cx="250" cy="200" r="70" stroke="#1D3557" stroke-dasharray="4 4" stroke-width="1" opacity=".2"/><circle cx="150" cy="150" r="5" fill="#457B9D" opacity=".5"/><circle cx="350" cy="150" r="5" fill="#1D3557" opacity=".5"/><circle cx="150" cy="250" r="5" fill="#1D3557" opacity=".5"/><circle cx="350" cy="250" r="5" fill="#457B9D" opacity=".5"/><path stroke="#457B9D" stroke-dasharray="4 4" stroke-width="1" d="M155 150 L345 150" opacity=".3"/><path stroke="#1D3557" stroke-dasharray="4 4" stroke-width="1" d="M155 250 L345 250" opacity=".3"/><circle cx="180" cy="205" r="15" fill="#457B9D" opacity=".8"/><rect width="25" height="10" x="175" y="200" fill="#457B9D" opacity=".8" rx="5"/><circle cx="320" cy="205" r="15" fill="#1D3557" opacity=".8"/><rect width="25" height="10" x="315" y="200" fill="#1D3557" opacity=".8" rx="5"/></svg>