<svg xmlns="http://www.w3.org/2000/svg" width="240" height="200" viewBox="0 0 240 200">
  <style>
    .primary { fill: #4f46e5; }
    .secondary { fill: #f97316; }
    .accent { fill: #8b5cf6; }
    .light { fill: #f8fafc; }
    .medium { fill: #e2e8f0; }
    .dark { fill: #1e293b; }
    .st0 { fill: #ffffff; }
  </style>
  <!-- Background shapes -->
  <circle class="medium" cx="120" cy="100" r="85" opacity="0.3"/>
  <circle class="light" cx="120" cy="100" r="75"/>
  
  <!-- Dashboard tracking -->
  <g transform="translate(50, 30)">
    <!-- Dashboard panel -->
    <rect class="dark" x="0" y="0" width="140" height="100" rx="10" ry="10"/>
    <rect class="st0" x="5" y="5" width="130" height="90" rx="5" ry="5"/>
    
    <!-- Graph -->
    <rect class="light" x="15" y="20" width="110" height="55" rx="3" ry="3"/>
    
    <!-- Chart bars -->
    <rect class="primary" x="25" y="60" width="10" height="10" rx="2" ry="2"/>
    <rect class="primary" x="45" y="50" width="10" height="20" rx="2" ry="2"/>
    <rect class="primary" x="65" y="40" width="10" height="30" rx="2" ry="2"/>
    <rect class="accent" x="85" y="30" width="10" height="40" rx="2" ry="2"/>
    <rect class="secondary" x="105" y="25" width="10" height="45" rx="2" ry="2"/>
    
    <!-- Tracking line -->
    <polyline points="25,40 45,35 65,25 85,15 105,20" stroke="#4f46e5" stroke-width="2" fill="none"/>
    <circle class="primary" cx="25" cy="40" r="3"/>
    <circle class="primary" cx="45" cy="35" r="3"/>
    <circle class="primary" cx="65" cy="25" r="3"/>
    <circle class="primary" cx="85" cy="15" r="3"/>
    <circle class="primary" cx="105" cy="20" r="3"/>
    
    <!-- Dashboard title -->
    <rect class="medium" x="15" y="10" width="50" height="5" rx="2" ry="2"/>
    
    <!-- Status indicators -->
    <circle class="accent" cx="130" cy="15" r="5"/>
    <circle class="secondary" cx="115" cy="15" r="5"/>
    
    <!-- Mobile notification -->
    <g transform="translate(90, 95)">
      <rect class="dark" x="0" y="0" width="40" height="60" rx="5" ry="5"/>
      <rect class="st0" x="3" y="5" width="34" height="50" rx="3" ry="3"/>
      <rect class="medium" x="8" y="10" width="24" height="5" rx="1" ry="1"/>
      <rect class="medium" x="8" y="20" width="24" height="5" rx="1" ry="1"/>
      <rect class="medium" x="8" y="30" width="24" height="5" rx="1" ry="1"/>
      <circle class="primary" cx="20" cy="45" r="5"/>
    </g>
  </g>
</svg> 