<svg xmlns="http://www.w3.org/2000/svg" width="240" height="200" viewBox="0 0 240 200"><style>.primary{fill:#4f46e5}.secondary{fill:#f97316}.accent{fill:#8b5cf6}.light{fill:#f8fafc}.medium{fill:#e2e8f0}.dark{fill:#1e293b}.st0{fill:#fff}</style><circle cx="120" cy="100" r="85" class="medium" opacity=".3"/><circle cx="120" cy="100" r="75" class="light"/><g transform="translate(50, 30)"><rect width="140" height="100" x="0" y="0" class="dark" rx="10" ry="10"/><rect width="130" height="90" x="5" y="5" class="st0" rx="5" ry="5"/><rect width="110" height="55" x="15" y="20" class="light" rx="3" ry="3"/><rect width="10" height="10" x="25" y="60" class="primary" rx="2" ry="2"/><rect width="10" height="20" x="45" y="50" class="primary" rx="2" ry="2"/><rect width="10" height="30" x="65" y="40" class="primary" rx="2" ry="2"/><rect width="10" height="40" x="85" y="30" class="accent" rx="2" ry="2"/><rect width="10" height="45" x="105" y="25" class="secondary" rx="2" ry="2"/><polyline fill="none" stroke="#4f46e5" stroke-width="2" points="25 40 45 35 65 25 85 15 105 20"/><circle cx="25" cy="40" r="3" class="primary"/><circle cx="45" cy="35" r="3" class="primary"/><circle cx="65" cy="25" r="3" class="primary"/><circle cx="85" cy="15" r="3" class="primary"/><circle cx="105" cy="20" r="3" class="primary"/><rect width="50" height="5" x="15" y="10" class="medium" rx="2" ry="2"/><circle cx="130" cy="15" r="5" class="accent"/><circle cx="115" cy="15" r="5" class="secondary"/><g transform="translate(90, 95)"><rect width="40" height="60" x="0" y="0" class="dark" rx="5" ry="5"/><rect width="34" height="50" x="3" y="5" class="st0" rx="3" ry="3"/><rect width="24" height="5" x="8" y="10" class="medium" rx="1" ry="1"/><rect width="24" height="5" x="8" y="20" class="medium" rx="1" ry="1"/><rect width="24" height="5" x="8" y="30" class="medium" rx="1" ry="1"/><circle cx="20" cy="45" r="5" class="primary"/></g></g></svg>