<svg xmlns="http://www.w3.org/2000/svg" width="800" height="600" viewBox="0 0 800 600"><circle cx="400" cy="300" r="250" fill="#f0f7ff" opacity=".6"/><circle cx="350" cy="250" r="150" fill="#e4efff" opacity=".4"/><g transform="translate(300, 200)"><circle cx="0" cy="0" r="50" fill="#f9d9c0"/><path fill="none" stroke="#333" stroke-width="2" d="M-20,0 Q0,20 20,0"/><circle cx="-15" cy="-10" r="5" fill="#333"/><circle cx="15" cy="-10" r="5" fill="#333"/><path fill="none" stroke="#4f46e5" stroke-width="6" d="M-50,-10 Q-50,-50 0,-60 Q50,-50 50,-10"/><rect width="12" height="25" x="-55" y="-15" fill="#4f46e5" rx="6"/><rect width="12" height="25" x="43" y="-15" fill="#4f46e5" rx="6"/><path fill="none" stroke="#4f46e5" stroke-width="4" d="M-52,-10 L-40,20"/><path fill="#4f46e5" d="M-40,50 L0,150 L40,50"/><rect width="80" height="60" x="-40" y="50" fill="#4f46e5" rx="5"/><path fill="none" stroke="#4f46e5" stroke-linecap="round" stroke-width="15" d="M-40,70 Q-80,90 -90,130"/><path fill="none" stroke="#4f46e5" stroke-linecap="round" stroke-width="15" d="M40,70 Q80,90 90,130"/></g><g transform="translate(500, 230)"><rect width="120" height="60" x="0" y="0" fill="#8b5cf6" rx="15"/><circle cx="0" cy="60" r="15" fill="#8b5cf6"/><rect width="100" height="50" x="-50" y="100" fill="#f97316" rx="15"/><circle cx="50" cy="100" r="15" fill="#f97316"/><text x="60" y="40" fill="#fff" font-family="Arial" font-size="30" text-anchor="middle">?</text><text x="0" y="130" fill="#fff" font-family="Arial" font-size="25" text-anchor="middle">!</text></g><g transform="translate(200, 380)"><rect width="120" height="80" x="0" y="0" fill="#333" rx="5"/><rect width="110" height="70" x="5" y="5" fill="#f8fafc" rx="2"/><rect width="140" height="10" x="-10" y="80" fill="#333" rx="5"/></g><path fill="none" stroke="#4f46e5" stroke-dasharray="5 5" stroke-width="3" d="M320,380 Q400,300 500,250"/><path fill="none" stroke="#f97316" stroke-dasharray="5 5" stroke-width="3" d="M500,300 Q420,350 350,320"/><circle cx="150" cy="150" r="10" fill="#4f46e5" opacity=".3"/><circle cx="600" cy="180" r="15" fill="#f97316" opacity=".3"/><circle cx="200" cy="500" r="12" fill="#8b5cf6" opacity=".3"/><circle cx="650" cy="450" r="8" fill="#4f46e5" opacity=".3"/></svg>