<?xml version="1.0" encoding="UTF-8"?>
<svg width="200" height="200" viewBox="0 0 200 200" fill="none" xmlns="http://www.w3.org/2000/svg">
  <!-- Background Circle -->
  <circle cx="100" cy="100" r="100" fill="#F97316" opacity="0.1"/>
  
  <!-- Hair -->
  <path d="M60 85C60 60 75 45 100 45C125 45 140 60 140 85V95C140 95 125 100 100 100C75 100 60 95 60 95V85Z" fill="#F97316" opacity="0.2"/>
  
  <!-- Face -->
  <circle cx="100" cy="85" r="40" fill="#F97316" opacity="0.2"/>
  
  <!-- Features -->
  <circle cx="85" cy="80" r="5" fill="#F97316"/>
  <circle cx="115" cy="80" r="5" fill="#F97316"/>
  <path d="M85 95C85 95 95 100 100 100C105 100 115 95 115 95" stroke="#F97316" stroke-width="3" stroke-linecap="round"/>
  
  <!-- Shoulders -->
  <path d="M60 160C60 160 80 150 100 150C120 150 140 160 140 160V200H60V160Z" fill="#F97316" opacity="0.1"/>
  
  <!-- Long Hair -->
  <path d="M60 85V140C60 140 75 120 100 120C125 120 140 140 140 140V85C140 85 125 90 100 90C75 90 60 85 60 85Z" fill="#F97316" opacity="0.15"/>
</svg> 