<?xml version="1.0" encoding="UTF-8"?>
<svg width="200" height="200" viewBox="0 0 200 200" fill="none" xmlns="http://www.w3.org/2000/svg">
  <!-- Background Circle -->
  <circle cx="100" cy="100" r="100" fill="#4F46E5" opacity="0.1"/>
  
  <!-- Central Bell Icon -->
  <path d="M100 40C120 40 140 60 140 100C140 120 150 130 150 140H50C50 130 60 120 60 100C60 60 80 40 100 40Z" fill="#4F46E5" opacity="0.2"/>
  <circle cx="100" cy="140" r="10" fill="#4F46E5"/>
  
  <!-- Notification Waves -->
  <path d="M80 90C80 70 90 60 100 60" stroke="#4F46E5" stroke-width="4" stroke-linecap="round" opacity="0.3"/>
  <path d="M70 100C70 70 85 50 100 50" stroke="#4F46E5" stroke-width="4" stroke-linecap="round" opacity="0.2"/>
  <path d="M120 90C120 70 110 60 100 60" stroke="#4F46E5" stroke-width="4" stroke-linecap="round" opacity="0.3"/>
  <path d="M130 100C130 70 115 50 100 50" stroke="#4F46E5" stroke-width="4" stroke-linecap="round" opacity="0.2"/>
</svg> 