<svg xmlns="http://www.w3.org/2000/svg" width="500" height="400" fill="none" viewBox="0 0 500 400"><circle cx="250" cy="200" r="150" fill="#E8F4FF" opacity=".3"/><circle cx="100" cy="100" r="50" fill="#457B9D" opacity=".1"/><circle cx="400" cy="300" r="70" fill="#1D3557" opacity=".1"/><path fill="none" stroke="#457B9D" stroke-width="8" d="M200 180 C 220 160, 240 160, 260 180"/><path fill="none" stroke="#1D3557" stroke-width="8" d="M240 180 C 260 160, 280 160, 300 180"/><rect width="200" height="120" x="150" y="200" fill="#457B9D" rx="10"/><rect width="160" height="20" x="170" y="220" fill="#fff" rx="5"/><rect width="160" height="20" x="170" y="250" fill="#fff" rx="5"/><rect width="100" height="20" x="170" y="280" fill="#fff" rx="5"/><circle cx="220" cy="150" r="20" fill="#1D3557"/><circle cx="280" cy="150" r="20" fill="#457B9D"/><circle cx="150" cy="100" r="10" fill="#457B9D" opacity=".5"/><circle cx="350" cy="100" r="10" fill="#1D3557" opacity=".5"/><circle cx="150" cy="300" r="10" fill="#1D3557" opacity=".5"/><circle cx="350" cy="300" r="10" fill="#457B9D" opacity=".5"/><path stroke="#457B9D" stroke-width="2" d="M150 100 Q 250 50 350 100" opacity=".3"/><path stroke="#1D3557" stroke-width="2" d="M150 300 Q 250 350 350 300" opacity=".3"/><circle cx="250" cy="200" r="100" stroke="#457B9D" stroke-dasharray="4 4" stroke-width="1" opacity=".2"/><circle cx="250" cy="200" r="70" stroke="#1D3557" stroke-dasharray="4 4" stroke-width="1" opacity=".2"/></svg>