<svg xmlns="http://www.w3.org/2000/svg" width="240" height="200" viewBox="0 0 240 200"><style>.primary{fill:#4f46e5}.secondary{fill:#f97316}.accent{fill:#8b5cf6}.light{fill:#f8fafc}.medium{fill:#e2e8f0}.dark{fill:#1e293b}.st0{fill:#fff}</style><circle cx="120" cy="100" r="85" class="medium" opacity=".3"/><circle cx="120" cy="100" r="75" class="light"/><g transform="translate(60, 25)"><rect width="100" height="160" x="10" y="5" class="dark" rx="15" ry="15"/><rect width="90" height="140" x="15" y="15" class="st0" rx="5" ry="5"/><rect width="70" height="20" x="25" y="25" class="primary" opacity=".8" rx="5" ry="5"/><rect width="70" height="10" x="25" y="55" class="medium" rx="3" ry="3"/><rect width="70" height="10" x="25" y="75" class="medium" rx="3" ry="3"/><rect width="70" height="30" x="25" y="95" class="medium" rx="3" ry="3"/><rect width="70" height="15" x="25" y="135" class="secondary" rx="7.5" ry="7.5"/><text x="60" y="146" fill="#fff" font-family="Arial" font-size="10" font-weight="bold" text-anchor="middle">SUBMIT</text><circle cx="125" cy="50" r="15" class="accent"/><path d="M125,42 C120,42 116,46 116,51 C116,56 125,68 125,68 C125,68 134,56 134,51 C134,46 130,42 125,42 Z M125,54 C123,54 121,52 121,50 C121,48 123,46 125,46 C127,46 129,48 129,50 C129,52 127,54 125,54 Z" class="st0"/></g></svg>