<?xml version="1.0" encoding="UTF-8"?>
<svg width="500" height="500" viewBox="0 0 500 500" fill="none" xmlns="http://www.w3.org/2000/svg">
  <!-- Background elements -->
  <rect x="50" y="100" width="400" height="300" rx="20" fill="#F0F4F8" />
  <circle cx="250" cy="150" r="80" fill="#E2EAFC" />
  
  <!-- Key icon -->
  <circle cx="190" cy="200" r="30" fill="#6A80B5" />
  <circle cx="190" cy="200" r="15" fill="#4A5E8C" />
  <rect x="190" y="200" width="120" height="20" rx="5" fill="#6A80B5" />
  <rect x="250" y="180" width="20" height="30" rx="2" fill="#6A80B5" />
  <rect x="280" y="180" width="20" height="30" rx="2" fill="#6A80B5" />
  
  <!-- Lock being unlocked -->
  <rect x="200" y="300" width="100" height="80" rx="10" fill="#6A80B5" />
  <rect x="215" y="320" width="70" height="40" rx="5" fill="#4A5E8C" />
  <circle cx="250" cy="340" r="12" fill="#F0F4F8" />
  <path d="M220 280C220 260 240 260 250 260C260 260 280 260 280 280" stroke="#6A80B5" stroke-width="8" />
  
  <!-- Decorative elements -->
  <circle cx="400" cy="140" r="20" fill="#B8C9E6" />
  <circle cx="100" cy="340" r="30" fill="#B8C9E6" />
  <circle cx="380" cy="380" r="15" fill="#B8C9E6" />
  <circle cx="120" cy="180" r="10" fill="#B8C9E6" />
  
  <!-- Success checkmark -->
  <circle cx="350" cy="250" r="25" fill="#6FCF97" />
  <path d="M335 250L345 260L365 240" stroke="white" stroke-width="5" />
</svg> 