<svg xmlns="http://www.w3.org/2000/svg" width="200" height="200" fill="none" viewBox="0 0 200 200"><circle cx="100" cy="100" r="90" fill="url(#supportGradient)" opacity=".1"/><circle cx="100" cy="100" r="35" fill="#4f46e5"/><path stroke="#fff" stroke-linecap="round" stroke-width="3" d="M85 100C85 91.716 91.716 85 100 85C108.284 85 115 91.716 115 100C115 108.284 108.284 115 100 115"/><g transform="rotate(0 100 100)"><circle cx="100" cy="50" r="15" fill="#6366f1"/><circle cx="100" cy="50" r="8" fill="#fff"/></g><g transform="rotate(120 100 100)"><circle cx="100" cy="50" r="15" fill="#818cf8"/><circle cx="100" cy="50" r="8" fill="#fff"/></g><g transform="rotate(240 100 100)"><circle cx="100" cy="50" r="15" fill="#8b5cf6"/><circle cx="100" cy="50" r="8" fill="#fff"/></g><path stroke="#4f46e5" stroke-dasharray="4 4" stroke-width="2" d="M100 65L100 85"/><path stroke="#4f46e5" stroke-dasharray="4 4" stroke-width="2" d="M135 117L115 107"/><path stroke="#4f46e5" stroke-dasharray="4 4" stroke-width="2" d="M65 117L85 107"/><defs><linearGradient id="supportGradient" x1="0" x2="200" y1="0" y2="200" gradientUnits="userSpaceOnUse"><stop offset="0%" stop-color="#4f46e5"/><stop offset="100%" stop-color="#8b5cf6"/></linearGradient></defs><animateTransform attributeName="transform" attributeType="XML" dur="20s" from="0 100 100" repeatCount="indefinite" to="360 100 100" type="rotate"/></svg>